<?xml version="1.0" encoding="UTF-8"?>
<svg width="16px" height="16px" viewBox="0 0 14 14" version="1.1" xmlns="http://www.w3.org/2000/svg" xmlns:xlink="http://www.w3.org/1999/xlink">
    <title>app_inactive_dark</title>
    <g id="Icon" stroke="none" stroke-width="1" fill="none" fill-rule="evenodd">
        <g id="IDEA" transform="translate(-203.000000, -112.000000)" fill="#AFB1B3">
            <g id="app_inactive备份-2" transform="translate(203.000000, 112.000000)">
                <path d="M7,2 C8.87116425,2 10.4422446,3.2848121 10.8791657,5.02036107 C12.6334179,5.2088765 14,6.69484707 14,8.5 C14,10.2629068 12.6966339,11.7213961 11.0009499,11.9644196 L11,12 L4,12 C1.790861,12 0,10.209139 0,8 C0,5.95358546 1.53674929,4.26609794 3.5191836,4.02860171 C4.20617545,2.81725705 5.50764742,2 7,2 Z M8.84877393,5.57471429 L6.0203468,8.40314142 L4.60613324,6.98892785 L3.89902646,7.69603463 L6.0203468,9.81735498 L9.55588071,6.28182107 L8.84877393,5.57471429 Z" id="形状结合"></path>
            </g>
        </g>
    </g>
</svg>