<?xml version="1.0" standalone="no"?><!DOCTYPE svg PUBLIC "-//W3C//DTD SVG 1.1//EN" "http://www.w3.org/Graphics/SVG/1.1/DTD/svg11.dtd"><svg t="1632375935614" class="icon" viewBox="0 0 1188 1024" version="1.1" xmlns="http://www.w3.org/2000/svg" p-id="1893" xmlns:xlink="http://www.w3.org/1999/xlink" width="18.5625" height="16"><defs><style type="text/css"></style></defs><path d="M575.75813776 861.4784024L575.39121234 487.94376955C543.57793505 517.63612306 480.0296377 576.9478141 480.0296377 576.9478141 465.12563802 590.85828811 441.76684079 590.05281252 427.85635671 575.14873943 413.94587265 560.24465476 414.75133744 536.88584749 429.65544296 522.97537347L580.12095817 382.54085331C598.57503677 365.31701568 627.49973588 365.30158547 645.9703725 382.54085331L796.4358877 522.97537347C811.33999323 536.88584749 812.14545802 560.24465476 798.23497396 575.14873943 784.32459495 590.05281252 760.96569265 590.85828811 746.06169296 576.9478141 746.06169296 576.9478141 681.32940359 516.53104332 648.90493464 486.26825091L648.90493464 861.47322372C648.90493464 881.87567883 632.31638837 898.41514042 611.92432152 898.41514042 592.35712636 898.41514042 575.78144645 881.87821024 575.75813776 861.4784024ZM876.10677058 717.6640625C975.12969235 717.6640625 1055.40364583 637.39011984 1055.40364583 538.36718725 1055.40364583 462.81524942 1013.21614608 390.71093775 941.45689567 371.7879136 869.6975402 352.86490023 880.00911483 355.90637694 880.00911483 355.90637694 880.00911483 355.90637694 881.75736442 369.49441168 873.65863052 306.27455501 865.55989583 243.0546875 803.3292204 190.32031225 733.72395808 190.32031225 713.69417714 190.32031225 694.63038386 194.45622704 677.33994255 201.92063054L646.4593252 220.18803949 613.80356374 178.14402951C575.64170087 140.04844278 522.96111467 116.4921875 464.77864558 116.4921875 348.28113421 116.4921875 253.84114608 210.9321231 253.84114608 327.42968775 253.84114608 341.68225982 255.2546377 355.60468327 257.94925947 369.06441512 188.00143484 393.51001452 137.82552083 460.07898965 137.82552083 538.36718725 137.82552083 633.84958642 212.4617476 711.89976324 306.57552058 717.6640625L469.97793874 717.6640625C490.4059698 717.6640625 506.96614608 701.1158364 506.96614608 680.79510927 506.96614608 660.43294263 490.43455218 643.9301953 470.12316891 643.93516232L311.08895068 643.97402793C255.40092307 640.56324193 211.65364558 594.30652607 211.65364558 538.36718725 211.65364558 493.16874446 240.35116561 453.42156963 282.30631765 438.75892472L303.17700151 431.46496964C325.08402089 423.80882442 339.24857932 399.06753272 334.68083333 376.25048617L330.34100489 354.57212284C328.57071192 345.72944338 327.66927083 336.65912057 327.66927083 327.42968775 327.66927083 251.70626794 389.05524739 190.32031225 464.77864558 190.32031225 513.85968889 190.32031225 558.35611073 216.25793628 582.91661828 257.77672193L604.12089983 293.62219673C616.0018487 313.7065369 640.47502859 318.31752534 658.85475094 304.04190799L691.74644671 278.49473977C703.68825124 269.21950143 718.22142297 264.14843775 733.72395808 264.14843775 771.58565755 264.14843775 802.27864583 294.84141522 802.27864583 332.70312475 802.27864583 337.0612516 801.88123926 341.32999446 801.1017204 345.49044078L792.47848983 391.51425043C788.19329401 414.38549699 803.5835049 432.92593301 826.85423599 432.92219965L873.67888021 432.91470044C934.13525505 432.90500818 981.57552108 479.90058594 981.57552108 538.36718725 981.57552108 596.61596416 934.35557917 643.83593775 876.10677058 643.83593775L723.09186452 643.87333642C702.75189963 643.87830422 686.26302058 660.44039934 686.26302058 680.77320338 686.26302058 701.14745619 702.77826657 717.6640625 723.09186452 717.6640625L876.10677058 717.6640625 876.10677058 717.6640625Z" fill="#afb1b3" p-id="1894"></path></svg>