<?xml version="1.0" encoding="UTF-8"?>
<svg width="16px" height="16px" viewBox="0 0 14 14" version="1.1" xmlns="http://www.w3.org/2000/svg" xmlns:xlink="http://www.w3.org/1999/xlink">
    <title>namespace_sleep_dark</title>
    <g id="Icon" stroke="none" stroke-width="1" fill="none" fill-rule="evenodd">
        <g id="IDEA" transform="translate(-203.000000, -178.000000)">
            <g id="namespace备份-3" transform="translate(203.000000, 178.000000)">
                <g id="应用" transform="translate(1.000000, 0.419851)">
                    <path d="M0,4.14352195 C0,3.81202837 0.241519841,3.66226045 0.558624674,3.751566 L0.64685715,3.78189259 L4.81428572,6.38656937 C5.13777143,6.58227468 5.40293714,6.95363611 5.45273543,7.34256316 L5.46114286,7.47263923 L5.46177486,8.09859126 C5.16624096,8.69711873 5,9.36995396 5,10.0801489 C5,10.7903439 5.16624096,11.4631791 5.46177486,12.0617066 L5.46114286,12.5384047 C5.46114286,12.939306 5.21623331,13.0934988 4.89585461,12.9442828 L4.81428572,12.9006249 L0.64685715,10.2947663 C0.323371429,10.0995928 0.0582057142,9.7282846 0.00840742856,9.33936286 L0,9.20928739 L0,4.14352195 Z M8.68769781,5.65392558 L11.3531429,4.28888277 C11.6849231,4.08815939 11.9553542,4.19607338 11.9949958,4.55545964 L12,4.65051213 L12.0010065,6.34304861 C11.2848389,5.86157652 10.4240424,5.58014891 9.5,5.58014891 C9.2228091,5.58014891 8.95130942,5.60547341 8.68769781,5.65392558 Z M5.17371429,0.162644572 C5.49269842,-0.0301193652 5.98280071,-0.0515375804 6.28964453,0.0983899262 L10.7068572,2.76850315 C11.0358095,2.96729096 11.0632222,3.22715051 10.7890952,3.43611694 L10.7068572,3.49176186 L6.61085715,5.59063026 C6.29187302,5.71931463 5.85865961,5.7336129 5.51388987,5.58289428 L5.38914286,5.51854075 L1.29314286,2.91327308 C0.964190482,2.7139436 0.936777784,2.45403891 1.21134491,2.24506872 L1.29371429,2.18942347 L5.17371429,0.162644572 Z" id="形状" fill="#AFB1B3" fill-rule="nonzero"></path>
                    <g id="休眠" transform="translate(6.000000, 6.580149)">
                        <path d="M3.5,0 C5.425,0 7,1.575 7,3.5 C7,5.425 5.425,7 3.5,7 C1.575,7 0,5.425 0,3.5 C0,1.575 1.575,0 3.5,0 Z M2.5792,1.23847619 L2.55,1.23809524 C1.65,1.61904762 1,2.52380952 1,3.52380952 C1,4.9047619 2.15,6 3.6,6 C4.7,6 5.6,5.38095238 6,4.52380952 C6,4.47619048 5.95,4.47619048 5.9,4.47619048 C5.65,4.57142857 5.35,4.61904762 5.05,4.61904762 C3.6,4.61904762 2.45,3.52380952 2.45,2.14285714 C2.45,1.85714286 2.5,1.57142857 2.6,1.28571429 C2.65,1.23809524 2.6,1.23809524 2.55,1.23809524 Z M5.3,1 L3.6,1 C3.4,1 3.3,1.14285714 3.3,1.28571429 C3.3,1.47619048 3.45,1.57142857 3.6,1.57142857 L3.6,1.57142857 L4.65,1.57142857 L3.4,2.76190476 C3.35,2.85714286 3.3,2.95238095 3.35,3.04761905 C3.4,3.14285714 3.5,3.23809524 3.6,3.28571429 L3.6,3.28571429 L5.3,3.28571429 C5.5,3.28571429 5.6,3.14285714 5.6,3 C5.6,2.80952381 5.45,2.71428571 5.3,2.71428571 L5.3,2.71428571 L4.25,2.71428571 L5.5,1.42857143 C5.55,1.33333333 5.6,1.23809524 5.55,1.14285714 C5.5,1.04761905 5.4,1 5.3,1 L5.3,1 Z" id="形状结合" fill="#EDA200" fill-rule="nonzero"></path>
                        <g id="编组-4" transform="translate(1.000000, 1.000000)"></g>
                    </g>
                </g>
            </g>
        </g>
    </g>
</svg>