<?xml version="1.0" encoding="UTF-8"?>
<svg width="16px" height="16px" viewBox="0 0 14 14" version="1.1" xmlns="http://www.w3.org/2000/svg" xmlns:xlink="http://www.w3.org/1999/xlink">
    <title>namespace_viewer_light</title>
    <g id="Icon" stroke="none" stroke-width="1" fill="none" fill-rule="evenodd">
        <g id="IDEA" transform="translate(-503.000000, -154.000000)">
            <g id="namespace_viewer备份" transform="translate(503.000000, 154.000000)">
                <path d="M0.471942937,4.14497341 C0.471942937,3.81348479 0.713462778,3.66371911 1.03056761,3.75302333 L1.11880009,3.78334947 L5.28622866,6.38798729 C5.60971437,6.58368966 5.87488008,6.95504554 5.92467836,7.34396677 L5.93308579,7.47404089 L5.93241099,8.93206429 C5.05727825,9.659823 4.46114286,10.5470392 4.46114286,11.2665054 C4.46114286,11.7416909 4.72118914,12.2900524 5.14991102,12.8173181 L1.11880009,10.2961258 C0.795314366,10.1009552 0.530148651,9.72965252 0.480350365,9.34073661 L0.471942937,9.21066307 L0.471942937,4.14497341 Z M11.8250858,4.29033206 C12.156866,4.08961168 12.4272971,4.19752406 12.4669387,4.55690494 L12.4719429,4.651956 L12.4726079,8.70068055 C11.5658258,8.03017897 10.4276277,7.54428313 9.35003175,7.54428313 C8.59021697,7.54428313 7.80027274,7.7858552 7.08256725,8.1633808 L7.08280009,7.47463178 C7.08280009,7.08375884 7.31515437,6.6928859 7.62406523,6.46010112 L7.72965723,6.38857817 L11.8250858,4.29033206 Z M1.76565722,2.19090416 L5.64565722,0.164155581 C5.96464136,-0.0286054724 6.45474365,-0.0500233673 6.76158747,0.0999018967 L11.1788001,2.76997518 C11.5077525,2.96876002 11.5351652,3.22861568 11.2610382,3.43757899 L11.1788001,3.49322307 L7.08280009,5.59206007 C6.76381595,5.72074252 6.33060255,5.73504057 5.98583281,5.58432422 L5.8610858,5.51997164 L1.7650858,2.91474294 C1.43613342,2.71541645 1.40872072,2.45551565 1.68328785,2.24654858 L1.76565722,2.19090416 Z" id="形状" fill="#6E6E6E" fill-rule="nonzero"></path>
                <path d="M9.35003175,8.54428313 C11.4978058,8.54428313 13.2389206,10.6704709 13.2389206,11.2665054 C13.2389206,11.8625398 11.4978058,13.9887276 9.35003175,13.9887276 C7.20225772,13.9887276 5.46114286,11.8625398 5.46114286,11.2665054 C5.46114286,10.6704709 7.20225772,8.54428313 9.35003175,8.54428313 Z M9.35003175,9.32206091 C8.27614473,9.32206091 7.4055873,10.1926183 7.4055873,11.2665054 C7.4055873,12.3403924 8.27614473,13.2109498 9.35003175,13.2109498 C10.4239188,13.2109498 11.2944762,12.3403924 11.2944762,11.2665054 C11.2944762,10.1926183 10.4239188,9.32206091 9.35003175,9.32206091 Z M9.37994628,10.0998387 C10.0242785,10.0998387 10.5466129,10.6221731 10.5466129,11.2665054 C10.5466129,11.9108376 10.0242785,12.433172 9.37994628,12.433172 C8.73561407,12.433172 8.21327961,11.9108376 8.21327961,11.2665054 C8.21327961,10.6221731 8.73561407,10.0998387 9.37994628,10.0998387 Z" id="形状结合" fill="#389FD6"></path>
            </g>
        </g>
    </g>
</svg>