<svg width="13" height="13" xmlns="http://www.w3.org/2000/svg" viewBox="0 0 100 100">
    <path d="M40.945 60.867a21.63 21.63 0 01-10.89-3.13c-1.54 6.773-7.598 11.828-14.838 11.828C6.813 69.565 0 62.752 0 54.348 0 45.943 6.813 39.13 15.217 39.13c1.515 0 2.977.222 4.358.633l-.007-.273-.003-.36c0-12.006 9.733-21.739 21.74-21.739 12.006 0 21.738 9.733 21.738 21.74H81.74a3.043 3.043 0 013.044 3.043V60.87c0 12.006-9.733 21.739-21.74 21.739-12.006 0-21.739-9.733-21.739-21.74zm56.012-36.954A3.043 3.043 0 01100 26.957v20A3.043 3.043 0 0196.957 50l-5.653-.001V35.652a3.044 3.044 0 00-2.864-3.038l-.18-.005-14.347-.001v-5.651a3.043 3.043 0 013.044-3.044h20z"
          fill="#aeb1b3" fill-rule="evenodd"/>
</svg>