<?xml version="1.0" encoding="UTF-8"?>
<svg width="13px" height="13px" viewBox="0 0 32 32" version="1.1" xmlns="http://www.w3.org/2000/svg" xmlns:xlink="http://www.w3.org/1999/xlink">
    <title>logo_dark</title>
    <g id="Icon" stroke="none" stroke-width="1" fill="none" fill-rule="evenodd">
        <g id="IDEA" transform="translate(-134.000000, -36.000000)" fill="#afb1b3">
            <g id="Logo备份" transform="translate(134.000000, 36.000000)">
                <path d="M13.2173913,5.76 C17.0593722,5.76 20.173913,8.86415907 20.173913,12.6933333 L20.173913,12.6933333 L26.1565217,12.6933333 C26.6943991,12.6933333 27.1304348,13.1279156 27.1304348,13.664 L27.1304348,19.6266667 C27.1304348,23.4558409 24.0158939,26.56 20.173913,26.56 C16.3319322,26.56 13.2173913,23.4558409 13.2173913,19.6266667 L12.9782363,19.6226463 C11.7504205,19.5813047 10.6032889,19.2228419 9.61669214,18.6268425 C9.12554294,20.7872291 7.18652539,22.4 4.86956522,22.4 C2.18017861,22.4 1.77635684e-13,20.2270887 1.77635684e-13,17.5466667 C1.77635684e-13,14.8662447 2.18017861,12.6933333 4.86956522,12.6933333 C5.35426113,12.6933333 5.82241736,12.7639121 6.26425212,12.8953206 L6.26086957,12.6933333 C6.26086957,8.86415907 9.37541044,5.76 13.2173913,5.76 Z M31.026087,7.84 C31.5639643,7.84 32,8.27458227 32,8.81066667 L32,15.1893333 C32,15.7254177 31.5639643,16.16 31.026087,16.16 L28.9481653,16.159 L28.9485424,11.852066 C28.9485424,11.3542734 28.5725728,10.9440004 28.0882082,10.8879297 L27.9746294,10.8813993 L23.6521653,10.881 L23.6521739,8.81066667 C23.6521739,8.27458227 24.0882096,7.84 24.626087,7.84 L31.026087,7.84 Z" id="形状结合"></path>
            </g>
        </g>
    </g>
</svg>