<?xml version="1.0" encoding="UTF-8"?>
<svg width="14px" height="14px" viewBox="0 0 14 14" version="1.1" xmlns="http://www.w3.org/2000/svg" xmlns:xlink="http://www.w3.org/1999/xlink">
    <title>icon_sleep</title>
    <g id="Icon" stroke="none" stroke-width="1" fill="none" fill-rule="evenodd">
        <g id="IDEA" transform="translate(-203.000000, -202.000000)" stroke="#AFB1B3">
            <g id="namespace备份-4" transform="translate(203.000000, 202.000000)">
                <g id="编组-3" transform="translate(1.500000, 1.500000)">
                    <path d="M11,7.95714286 C10.12,10.0142857 8.14,11.5 5.72,11.5 C2.53,11.5 0,8.87142857 0,5.55714286 C0,3.15714286 1.43,0.985714286 3.41,0.0714285714 C3.52,0.0714285714 3.63,0.0714285714 3.52,0.185714286 C3.3,0.871428571 3.19,1.55714286 3.19,2.24285714 C3.19,5.55714286 5.72,8.18571429 8.91,8.18571429 C9.57,8.18571429 10.23,8.07142857 10.78,7.84285714 C10.89,7.84285714 11,7.84285714 11,7.95714286 L11,7.95714286 Z" id="路径"></path>
                    <path d="M7,0 L10.1743061,0 C10.3123773,-1.21885302e-15 10.4243061,0.111928813 10.4243061,0.25 C10.4243061,0.333588297 10.3825308,0.411646129 10.3129811,0.458012574 L7.18701886,2.54198743 C7.07213669,2.61857554 7.04109322,2.77379288 7.11768134,2.88867505 C7.16404778,2.95822472 7.24210561,3 7.32569391,3 L10.5,3 L10.5,3" id="路径-4" stroke-linecap="round"></path>
                </g>
            </g>
        </g>
    </g>
</svg>