<?xml version="1.0" encoding="UTF-8"?>
<svg width="14px" height="14px" viewBox="0 0 14 14" version="1.1" xmlns="http://www.w3.org/2000/svg" xmlns:xlink="http://www.w3.org/1999/xlink">
    <title>icon_wakeup_dark</title>
    <g id="Icon" stroke="none" stroke-width="1" fill="none" fill-rule="evenodd">
        <g id="IDEA" transform="translate(-227.000000, -202.000000)">
            <g id="疑问备份-2" transform="translate(227.000000, 202.000000)">
                <path d="M13.1950589,1.35780054 C13.8329153,1.99565689 13.8329153,3.02982635 13.1950589,3.66768269 L12.6802557,4.18257104 C12.132727,3.22180604 11.3484705,2.41344971 10.4068786,1.8369044 L10.8851768,1.35780054 C11.5230331,0.719944199 12.5572026,0.719944199 13.1950589,1.35780054 Z" id="形状结合" fill="#AFB1B3"></path>
                <path d="M0.804941076,1.35780054 C1.44279742,0.719944199 2.47696688,0.719944199 3.11482323,1.35780054 L3.11482323,1.35780054 L3.59394818,1.83639535 C2.65199703,2.41296988 1.86744242,3.22151271 1.31975169,4.18255474 L0.804941076,3.66768269 C0.167084733,3.02982635 0.167084733,1.99565689 0.804941076,1.35780054 Z" id="形状结合" fill="#AFB1B3"></path>
                <path d="M6.99998277,2.71401548 C8.38071997,2.71401548 9.6307178,3.27365414 10.5355344,4.17846792 C11.4403624,5.08329312 12,6.33330089 12,7.71401548 C12,9.09472787 11.4403585,10.3447336 10.5355291,11.2495583 C9.63070804,12.1543746 8.38070575,12.7140155 6.99997129,12.7140155 C5.61926125,12.7140155 4.36927144,12.1543714 3.46445789,11.2495503 C2.55963863,10.3447235 2,9.09471578 2,7.71399825 C2,6.3332889 2.55963965,5.0832917 3.46445875,4.17847261 C4.36927574,3.27365562 5.61927035,2.71401548 6.99998277,2.71401548 Z" id="路径" stroke="#AFB1B3" fill-rule="nonzero"></path>
                <path d="M6.1428673,8.56606192 L9.34489979,5.29639979 C9.34489979,5.29639979 9.55992902,5.07876112 9.74739601,5.248453 C9.80339549,5.29993504 9.86770738,5.44443829 9.72245874,5.67113604 L6.37911509,10.0121991 C6.37911509,10.0121991 6.12252375,10.4010764 5.81802661,10.0077801 L4.37604012,7.84840665 C4.37604012,7.84840665 4.20454172,7.55630682 4.41891472,7.38087017 C4.49110155,7.32209667 4.65516251,7.23062215 4.85662937,7.43036363 L6.1428673,8.56606192 Z" id="路径" fill="#AFB1B3" fill-rule="nonzero"></path>
            </g>
        </g>
    </g>
</svg>