<?xml version="1.0" encoding="UTF-8"?>
<svg width="16px" height="16px" viewBox="0 0 14 14" version="1.1" xmlns="http://www.w3.org/2000/svg" xmlns:xlink="http://www.w3.org/1999/xlink">
    <title>normal_port_forwarding_light</title>
    <g id="Icon" stroke="none" stroke-width="1" fill="none" fill-rule="evenodd">
        <g id="IDEA" transform="translate(-383.000000, -154.000000)">
            <g id="normal_port_forwarding备份" transform="translate(383.000000, 154.000000)">
                <path d="M1.5,7 C2.32842712,7 3,7.67157288 3,8.5 C3,9.1528467 2.58293192,9.70828193 2.00070296,9.91439849 L2,10.5 C2,11.2796961 2.59488808,11.9204487 3.35553999,11.9931334 L3.5,12 L4.08524952,12.0002925 C4.29108512,11.4175435 4.84678131,11 5.5,11 C6.32842712,11 7,11.6715729 7,12.5 C7,13.3284271 6.32842712,14 5.5,14 C4.8471533,14 4.29171807,13.5829319 4.08560151,13.000703 L3.5,13 C2.1745166,13 1.08996133,11.9684641 1.00531768,10.6643757 L1,10.5 L1.00029246,9.91475048 C0.417543508,9.70891488 0,9.15321869 0,8.5 C0,7.67157288 0.671572875,7 1.5,7 Z M5.5,12 C5.22385763,12 5,12.2238576 5,12.5 C5,12.7761424 5.22385763,13 5.5,13 C5.77614237,13 6,12.7761424 6,12.5 C6,12.2238576 5.77614237,12 5.5,12 Z M1.5,8 C1.22385763,8 1,8.22385763 1,8.5 C1,8.77614237 1.22385763,9 1.5,9 C1.77614237,9 2,8.77614237 2,8.5 C2,8.22385763 1.77614237,8 1.5,8 Z" id="形状结合" fill="#AFB1B3" fill-rule="nonzero"></path>
                <circle id="椭圆形" fill="#59A869" cx="7" cy="7" r="2"></circle>
            </g>
        </g>
    </g>
</svg>