<?xml version="1.0" encoding="UTF-8"?>
<svg width="16px" height="16px" viewBox="0 0 14 14" version="1.1" xmlns="http://www.w3.org/2000/svg" xmlns:xlink="http://www.w3.org/1999/xlink">
    <title>setting_normal_dark</title>
    <g id="Icon" stroke="none" stroke-width="1" fill="none" fill-rule="evenodd">
        <g id="IDEA" transform="translate(-227.000000, -112.000000)" fill="#AFB1B3" fill-rule="nonzero">
            <g id="setting_normal备份-2" transform="translate(227.000000, 112.000000)">
                <path d="M8.1,3.4 L7.6,1 L6.4,1 L5.9,3.4 L5.2,3.7 L3.2,2.4 L2.3,3.2 L3.6,5.2 L3.4,5.9 L1,6.4 L1,7.6 L3.4,8.1 L3.7,8.9 L2.4,10.9 L3.2,11.7 L5.2,10.4 L6,10.7 L6.4,13 L7.6,13 L8.1,10.6 L8.9,10.3 L10.9,11.6 L11.7,10.8 L10.4,8.8 L10.7,8 L13,7.6 L13,6.4 L10.6,5.9 L10.3,5.1 L11.6,3.1 L10.8,2.3 L8.8,3.6 L8.1,3.4 L8.1,3.4 Z M8.4,0 L8.9,2.4 L11,1.1 L13,3.1 L11.6,5.2 L14,5.6 L14,8.4 L11.6,8.9 L13,11 L11,13 L8.9,11.6 L8.4,14 L5.6,14 L5.1,11.6 L3,12.9 L1,10.9 L2.4,8.8 L0,8.4 L0,5.6 L2.4,5.1 L1.1,3 L3.1,1 L5.2,2.4 L5.6,0 L8.4,0 Z M9,7 C9,8.1 8.1,9 7,9 C5.9,9 5,8.1 5,7 C5,5.9 5.9,5 7,5 C8.1,5 9,5.9 9,7 Z M7,8 C7.6,8 8,7.6 8,7 C8,6.4 7.6,6 7,6 C6.4,6 6,6.4 6,7 C6,7.6 6.4,8 7,8 Z" id="形状"></path>
            </g>
        </g>
    </g>
</svg>