<?xml version="1.0" encoding="UTF-8"?>
<svg width="16px" height="16px" viewBox="0 0 14 14" version="1.1" xmlns="http://www.w3.org/2000/svg" xmlns:xlink="http://www.w3.org/1999/xlink">
    <title>setting_helm_dark</title>
    <g id="Icon" stroke="none" stroke-width="1" fill="none" fill-rule="evenodd">
        <g id="IDEA" transform="translate(-107.000000, -178.000000)" stroke="#AFB1B3">
            <g id="setting_helm备份-2" transform="translate(107.000000, 178.000000)">
                <path d="M3,1 L8.08578644,1 C8.35100293,1 8.60535684,1.10535684 8.79289322,1.29289322 L11.7071068,4.20710678 C11.8946432,4.39464316 12,4.64899707 12,4.91421356 L12,12 C12,12.5522847 11.5522847,13 11,13 L3,13 C2.44771525,13 2,12.5522847 2,12 L2,2 C2,1.44771525 2.44771525,1 3,1 Z" id="矩形"></path>
                <line x1="3.97985345" y1="4" x2="8.47985345" y2="4" id="路径-3"></line>
                <line x1="3.97985345" y1="7" x2="10.0004128" y2="7" id="路径-3备份"></line>
                <line x1="3.97985345" y1="10" x2="10.0004128" y2="10" id="路径-3备份-2"></line>
            </g>
        </g>
    </g>
</svg>