<?xml version="1.0" encoding="UTF-8"?>
<svg width="16px" height="16px" viewBox="0 0 16 16" version="1.1" xmlns="http://www.w3.org/2000/svg" xmlns:xlink="http://www.w3.org/1999/xlink">
    <title>vcluster_active_light</title>
    <g id="Icon" stroke="none" stroke-width="1" fill="none" fill-rule="evenodd">
        <g id="IDEA" transform="translate(-359.000000, -208.000000)" fill="#389FD6" fill-rule="nonzero">
            <g id="编组-15" transform="translate(359.000000, 208.000000)">
                <path d="M6,9.43689571e-15 L5.99982217,1.155 L1.93782217,3.5 C1.66279899,3.65878471 1.48164418,3.93726855 1.44478291,4.24811259 L1.43782217,4.3660254 L1.43782217,9.6339746 C1.43782217,9.95154401 1.58841885,10.2476706 1.83918705,10.4350154 L1.93782217,10.5 L5.99982217,12.844 L6,14 L1.43782217,11.3660254 C0.866620186,11.0362418 0.497873939,10.4482905 0.44452364,9.7977897 L0.437822174,9.6339746 L0.437822174,4.3660254 C0.437822174,3.70645816 0.762629806,3.0931389 1.29930486,2.72168579 L1.43782217,2.6339746 L6,9.43689571e-15 Z M8,9.2148511e-15 L12.5621778,2.6339746 C13.1333798,2.96375822 13.5021261,3.55170951 13.5554764,4.2022103 L13.5621778,4.3660254 L13.5621778,9.6339746 C13.5621778,10.2935418 13.2373702,10.9068611 12.7006951,11.2783142 L12.5621778,11.3660254 L8,14 L7.99982217,12.844 L12.0621778,10.5 C12.337201,10.3412153 12.5183558,10.0627314 12.5552171,9.75188741 L12.5621778,9.6339746 L12.5621778,4.3660254 C12.5621778,4.04845599 12.4115811,3.7523294 12.160813,3.56498458 L12.0621778,3.5 L7.99982217,1.155 L8,9.2148511e-15 Z M2.5,7.75996192 L6.71132675,10.1410041 C6.86018644,10.2251508 7.03783197,10.2391753 7.19628695,10.1830775 L7.28867325,10.1410041 L11.499,7.76096192 L11.4999707,9.11943181 C11.4999707,9.3275767 11.3879326,9.51960846 11.2067339,9.62203567 L7.28410974,11.8393997 C7.10781194,11.9390565 6.89218806,11.9390565 6.71589026,11.8393997 L2.7932661,9.62203567 C2.61206742,9.51960846 2.5,9.3275767 2.5,9.11943181 L2.5,7.75996192 Z M2.5,4.93296192 L6.71132675,7.31464414 C6.86018644,7.3987909 7.03783197,7.41281536 7.19628695,7.35671752 L7.28867325,7.31464414 L11.499,4.93396192 L11.499,6.45396192 L7,8.99840575 L2.5,6.45396192 L2.5,4.93296192 Z M7.28410974,1.98570456 L10.844,3.99796192 L7,6.17204582 L3.155,3.99796192 L6.71589026,1.98570456 C6.89218806,1.88604771 7.10781194,1.88604771 7.28410974,1.98570456 Z" id="形状结合"></path>
            </g>
        </g>
    </g>
</svg>