<?xml version="1.0" encoding="UTF-8"?>
<svg width="14px" height="14px" viewBox="0 0 14 14" version="1.1" xmlns="http://www.w3.org/2000/svg" xmlns:xlink="http://www.w3.org/1999/xlink">
    <title>dev_hint2_light</title>
    <g id="Icon" stroke="none" stroke-width="1" fill="none" fill-rule="evenodd">
        <g id="IDEA" transform="translate(-335.000000, -136.000000)">
            <g id="dev_start备份-7" transform="translate(335.000000, 136.000000)">
                <path d="M5.23,1.1769342 C5.955,0.452934197 7.365,0.405934197 8.09,1.1309342 L8.09,1.1309342 L9.291,2.3319342 L9.254,2.4719342 C8.639,2.3139342 7.817,2.6159342 7.337,3.0979342 L7.337,3.0979342 L6.487,3.9469342 L6.261,4.1729342 C6.363,4.2789342 6.441,4.3549342 6.493,4.4049342 L6.493,4.4049342 L8.793,6.594 L7.575,8.587 L5.007,5.8909342 C4.97475,5.8564342 4.9228125,5.8050592 4.85245313,5.7351217 L4.776,5.6589342 L4.548,5.8869342 L3.728,6.7079342 L3.495,6.9399342 L3.728,7.1729342 L3.768,7.2129342 L4,7.4449342 L3.768,7.6749342 L3.029,8.4149342 L2.564,8.4149342 L4.79616347e-14,5.8509342 L4.79616347e-14,5.3869342 L0.739,4.6469342 L0.971,4.4149342 L1.203,4.6469342 L1.482,4.9259342 L1.715,4.6929342 L2.802,3.6049342 C2.684,3.4889342 2.607,3.4109342 2.57,3.3729342 L2.57,3.3729342 L2.525,3.3259342 L2.53,2.8559342 L3.458,1.9279342 L3.928,1.9229342 L3.975,1.9679342 C4.02,2.0099342 4.098,2.0879342 4.208,2.1999342 L4.208,2.1999342 L4.445,1.9629342 Z" id="形状结合" fill="#59A869" fill-rule="nonzero"></path>
                <path d="M5.6858215,11.679 L5.0528215,12.715 L2.85849757,12.7153 L2.85849757,14.0027463 L0.652821496,11.68 L5.6858215,11.679 Z M4.82291261,8.36 L6.5818215,10.213 L6.2958215,10.682 L0.652821496,10.6827463 L0.652821496,9.64744634 L4.82291261,9.64744634 L4.82291261,8.36 Z" id="形状结合" fill="#AFB1B3" fill-rule="nonzero"></path>
                <path d="M9.71777778,7 L13.9955556,14 L5.44,14 L9.71777778,7 Z M10.22076,12.3491812 L9.22076002,12.3491812 L9.22076002,13.3619413 L10.22076,13.3619413 L10.22076,12.3491812 Z M10.22076,9.10822165 L9.22076002,9.10822165 L9.22076002,11.5094489 L10.22076,11.5094489 L10.22076,9.10822165 Z" id="形状结合" fill="#EDA200"></path>
            </g>
        </g>
    </g>
</svg>