<?xml version="1.0" encoding="UTF-8"?>
<svg width="14px" height="14px" viewBox="0 0 14 14" version="1.1" xmlns="http://www.w3.org/2000/svg" xmlns:xlink="http://www.w3.org/1999/xlink">
    <title>dev_hint5_light</title>
    <g id="Icon" stroke="none" stroke-width="1" fill="none" fill-rule="evenodd">
        <g id="IDEA" transform="translate(-335.000000, -184.000000)">
            <g id="dev_start备份-12" transform="translate(335.000000, 184.000000)">
                <path d="M5.23,1.1769342 C5.955,0.452934197 7.365,0.405934197 8.09,1.1309342 L8.09,1.1309342 L9.291,2.3319342 L9.254,2.4719342 C8.639,2.3139342 7.817,2.6159342 7.337,3.0979342 L7.337,3.0979342 L6.487,3.9469342 L6.261,4.1729342 C6.363,4.2789342 6.441,4.3549342 6.493,4.4049342 L6.493,4.4049342 L8.60664543,6.416506 C7.91253721,6.73887996 7.31438848,7.23301965 6.86679535,7.84432898 L5.007,5.8909342 C4.964,5.8449342 4.886,5.7689342 4.776,5.6589342 L4.776,5.6589342 L4.548,5.8869342 L3.728,6.7079342 L3.495,6.9399342 L3.728,7.1729342 L3.768,7.2129342 L4,7.4449342 L3.768,7.6749342 L3.029,8.4149342 L2.564,8.4149342 L4.79616347e-14,5.8509342 L4.79616347e-14,5.3869342 L0.739,4.6469342 L0.971,4.4149342 L1.203,4.6469342 L1.482,4.9259342 L1.715,4.6929342 L2.802,3.6049342 C2.684,3.4889342 2.607,3.4109342 2.57,3.3729342 L2.57,3.3729342 L2.525,3.3259342 L2.53,2.8559342 L3.458,1.9279342 L3.928,1.9229342 L3.975,1.9679342 C4.02,2.0099342 4.098,2.0879342 4.208,2.1999342 L4.208,2.1999342 L4.445,1.9629342 Z" id="形状结合" fill="#DB5860" fill-rule="nonzero"></path>
                <path d="M10.5,7 C12.4329966,7 14,8.56700338 14,10.5 C14,12.4329966 12.4329966,14 10.5,14 C8.56700338,14 7,12.4329966 7,10.5 C7,8.56700338 8.56700338,7 10.5,7 Z M11.5606602,8.73223305 L10.5,9.79289322 L9.43933983,8.73223305 L8.73223305,9.43933983 L9.79218611,10.4992929 L8.73223305,11.5606602 L9.43933983,12.267767 L10.4992929,11.2063997 L11.5606602,12.267767 L12.267767,11.5606602 L11.2071068,10.5 L12.267767,9.43933983 L11.5606602,8.73223305 Z" id="形状结合" fill="#DB5860"></path>
                <path d="M6.58263981,12.7161598 L2.85849757,12.7153 L2.85849757,14.0027463 L0.652821496,11.68 L6.15635117,11.6801896 C6.25554115,12.046129 6.39974063,12.3935556 6.58263981,12.7161598 Z M4.82291261,8.36 L6.07479976,9.67855638 C6.02567368,9.94489367 6,10.2194486 6,10.5 L6.0038215,10.682 L0.652821496,10.6827463 L0.652821496,9.64744634 L4.82291261,9.64744634 L4.82291261,8.36 Z" id="形状结合" fill="#AFB1B3" fill-rule="nonzero"></path>
            </g>
        </g>
    </g>
</svg>